<?xml version="1.0" encoding="iso-8859-1"?>
<!-- Uploaded to: SVG Repo, www.svgrepo.com, Generator: SVG Repo Mixer Tools -->
<!DOCTYPE svg PUBLIC "-//W3C//DTD SVG 1.1//EN" "http://www.w3.org/Graphics/SVG/1.1/DTD/svg11.dtd">
<svg fill="#000000" height="800px" width="800px" version="1.1" id="Capa_1" xmlns="http://www.w3.org/2000/svg" xmlns:xlink="http://www.w3.org/1999/xlink" 
	 viewBox="0 0 484.87 484.87" xml:space="preserve">
<g>
	<path d="M287.684,15.768c3.203-1.208,5.161-4.443,4.736-7.837c-0.428-3.393-3.109-6.068-6.504-6.455C277.409,0.513,268.76,0,260,0
		C126.108,0,17.565,108.543,17.565,242.435S126.108,484.87,260,484.87c8.761,0,17.409-0.513,25.917-1.476
		c3.395-0.386,6.093-3.055,6.504-6.447c0.425-3.394-1.533-6.638-4.736-7.845c-91.688-34.55-156.982-122.891-156.982-226.667
		C130.702,138.658,195.997,50.317,287.684,15.768z"/>
	<path d="M465.565,229.966c1.483-1.082,2.099-2.984,1.531-4.72c-0.569-1.744-2.179-2.919-4.01-2.919h-44.272
		c-4.011,0-7.561-2.581-8.808-6.392l-13.67-42.088c-0.552-1.736-2.177-2.919-4.009-2.919c-1.831,0-3.457,1.183-4.008,2.919
		l-13.668,42.088c-1.248,3.811-4.799,6.392-8.809,6.392h-44.272c-1.831,0-3.44,1.175-4.01,2.919
		c-0.567,1.736,0.048,3.638,1.532,4.72l35.827,26.02c3.235,2.352,4.593,6.526,3.347,10.337l-13.685,42.095
		c-0.553,1.744,0.063,3.646,1.547,4.72c1.468,1.073,3.472,1.073,4.956,0l35.814-26.02c3.235-2.352,7.622-2.352,10.858,0
		l35.813,26.02c1.484,1.073,3.488,1.073,4.956,0c1.483-1.073,2.1-2.976,1.547-4.72l-13.685-42.095
		c-1.246-3.811,0.111-7.986,3.348-10.337L465.565,229.966z"/>
</g>
</svg>